<svg width="16" height="16" viewBox="0 0 16 16" fill="none" xmlns="http://www.w3.org/2000/svg">
<path d="M2 5L3 2H13L14 5" stroke="white" stroke-width="1.3" stroke-linejoin="round"/>
<path d="M2 5C2 6.1 2.9 7 4 7C5.1 7 6 6.1 6 5C6 6.1 6.9 7 8 7C9.1 7 10 6.1 10 5C10 6.1 10.9 7 12 7C13.1 7 14 6.1 14 5" stroke="white" stroke-width="1.3" stroke-linecap="round" stroke-linejoin="round"/>
<path d="M3 7V13.2C3 13.6418 3.35817 14 3.8 14H12.2C12.6418 14 13 13.6418 13 13.2V7" stroke="white" stroke-width="1.3"/>
<path d="M6.5 14V10.5C6.5 9.94772 6.94772 9.5 7.5 9.5H8.5C9.05228 9.5 9.5 9.94772 9.5 10.5V14" stroke="white" stroke-width="1.2"/>
</svg>
