<svg preserveAspectRatio="none" overflow="visible" style="display: block;" width="32" height="32" viewBox="0 0 32 32" fill="none" xmlns="http://www.w3.org/2000/svg">
<g id="SVG" clip-path="url(#clip0_0_10)">
<path id="Vector" d="M2.22222 0C0.993056 0 0 0.993056 0 2.22222V8.88889C0 10.1181 0.993056 11.1111 2.22222 11.1111C3.45139 11.1111 4.44444 10.1181 4.44444 8.88889V4.44444H8.88889C10.1181 4.44444 11.1111 3.45139 11.1111 2.22222C11.1111 0.993056 10.1181 0 8.88889 0H2.22222ZM4.44444 22.2222C4.44444 20.9931 3.45139 20 2.22222 20C0.993056 20 0 20.9931 0 22.2222V28.8889C0 30.118 0.993056 31.1111 2.22222 31.1111H8.88889C10.1181 31.1111 11.1111 30.118 11.1111 28.8889C11.1111 27.6597 10.1181 26.6667 8.88889 26.6667H4.44444V22.2222ZM22.2222 0C20.9931 0 20 0.993056 20 2.22222C20 3.45139 20.9931 4.44444 22.2222 4.44444H26.6667V8.88889C26.6667 10.1181 27.6597 11.1111 28.8889 11.1111C30.118 11.1111 31.1111 10.1181 31.1111 8.88889V2.22222C31.1111 0.993056 30.118 0 28.8889 0H22.2222ZM31.1111 22.2222C31.1111 20.9931 30.118 20 28.8889 20C27.6597 20 26.6667 20.9931 26.6667 22.2222V26.6667H22.2222C20.9931 26.6667 20 27.6597 20 28.8889C20 30.118 20.9931 31.1111 22.2222 31.1111H28.8889C30.118 31.1111 31.1111 30.118 31.1111 28.8889V22.2222Z" fill="#4C6FFF"/>
</g>
<defs>
<clipPath id="clip0_0_10">
<rect width="32" height="32" fill="white"/>
</clipPath>
</defs>
</svg>
