<svg preserveAspectRatio="none" overflow="visible" style="display: block;" width="32" height="32" viewBox="0 0 32 32" fill="none" xmlns="http://www.w3.org/2000/svg">
<g id="SVG" clip-path="url(#clip0_0_6)">
<path id="Vector" d="M4.89155 13.8713L-5.96046e-08 22.2536V6.82353C-5.96046e-08 4.87684 1.58272 3.29412 3.52941 3.29412H10.0092C10.9467 3.29412 11.8456 3.6636 12.5074 4.32536L13.9688 5.78677C14.6305 6.44853 15.5294 6.81801 16.4669 6.81801H22.9412C24.8879 6.81801 26.4706 8.40073 26.4706 10.3474V12.1121H7.94118C6.68382 12.1121 5.52573 12.7794 4.89155 13.8658V13.8713ZM6.4136 14.7592C6.73346 14.2133 7.3125 13.8824 7.94118 13.8824H30C30.6342 13.8824 31.2133 14.2187 31.5275 14.7703C31.8419 15.3217 31.8419 15.9944 31.5221 16.5404L25.3456 27.1287C25.0312 27.6691 24.4522 28 23.8235 28H1.76471C1.13051 28 0.55147 27.6636 0.237132 27.1121C-0.0772059 26.5607 -0.077206 25.8879 0.242647 25.3419L6.41912 14.7537L6.4136 14.7592Z" fill="#4C6FFF"/>
</g>
<defs>
<clipPath id="clip0_0_6">
<rect width="32" height="32" fill="white"/>
</clipPath>
</defs>
</svg>
