<svg preserveAspectRatio="none" overflow="visible" style="display: block;" width="14" height="14" viewBox="0 0 14 14" fill="none" xmlns="http://www.w3.org/2000/svg">
<g id="SVG" clip-path="url(#clip0_0_4)">
<path id="Vector" d="M13.111 0.562499V10.3125C13.111 10.4617 13.0516 10.6048 12.9463 10.7102C12.8407 10.8156 12.6977 10.875 12.5486 10.875C12.3992 10.875 12.2563 10.8156 12.1507 10.7102C12.0451 10.6048 11.9861 10.4617 11.9861 10.3125V1.92001L0.945969 12.96C0.839336 13.0594 0.698302 13.1134 0.552576 13.1109C0.406851 13.1083 0.267813 13.0493 0.164752 12.9463C0.0616926 12.8431 0.00265881 12.7042 8.76356e-05 12.5585C-0.00248353 12.4127 0.0516088 12.2717 0.150969 12.1651L11.191 1.125H2.79847C2.64929 1.125 2.50621 1.06574 2.40072 0.960247C2.29523 0.854758 2.23597 0.711683 2.23597 0.562499C2.23597 0.413315 2.29523 0.270242 2.40072 0.164752C2.50621 0.0592632 2.64929 0 2.79847 0H12.5486C12.6977 0 12.8407 0.0592632 12.9463 0.164752C13.0516 0.270242 13.111 0.413315 13.111 0.562499Z" fill="white"/>
</g>
<defs>
<clipPath id="clip0_0_4">
<rect width="14" height="14" fill="white"/>
</clipPath>
</defs>
</svg>
